RobotoExtremo-opsz8-wght100-wdth151-YOPQ25.ufo
<glyph name="quotedbl" format="2">
  <advance width="630"/>
  <unicode hex="0022"/>
  <outline>
    <contour>
      <point x="110.06" y="1059.0" type="line"/>
      <point x="100.0" y="1345.56" type="line"/>
      <point x="100.0" y="1456.0" type="line"/>
      <point x="214.71999999999997" y="1456.0" type="line"/>
      <point x="214.71999999999997" y="1345.56" type="line"/>
      <point x="205.66000000000003" y="1059.0" type="line"/>
    </contour>
    <contour>
      <point x="424.78000000000003" y="1059.0" type="line"/>
      <point x="414.71999999999997" y="1345.56" type="line"/>
      <point x="414.71999999999997" y="1456.0" type="line"/>
      <point x="530.4399999999999" y="1456.0" type="line"/>
      <point x="530.4399999999999" y="1345.56" type="line"/>
      <point x="521.3800000000001" y="1059.0" type="line"/>
    </contour>
  </outline>
</glyph>
<glyph name="numbersign" format="2">
  <advance width="1575"/>
  <unicode hex="0023"/>
  <outline>
    <contour>
      <point x="169.76" y="-20.0" type="line"/>
      <point x="775.56" y="1425.462962962963" type="line"/>
      <point x="869.56" y="1425.462962962963" type="line"/>
      <point x="262.76000000000005" y="-20.0" type="line"/>
    </contour>
    <contour>
      <point x="755.0" y="-20.0" type="line"/>
      <point x="1362.12" y="1425.462962962963" type="line"/>
      <point x="1457.1200000000001" y="1425.462962962963" type="line"/>
      <point x="850.0" y="-20.0" type="line"/>
    </contour>
    <contour>
      <point x="-14.399999999999977" y="458.8" type="line"/>
      <point x="-14.399999999999977" y="513.0088888888889" type="line"/>
      <point x="1499.2" y="513.0088888888889" type="line"/>
      <point x="1499.2" y="458.8" type="line"/>
    </contour>
    <contour>
      <point x="141.10592592592593" y="879.5651851851852" type="line"/>
      <point x="141.10592592592593" y="933.7740740740741" type="line"/>
      <point x="1652.7059259259258" y="933.7740740740741" type="line"/>
      <point x="1652.7059259259258" y="879.5651851851852" type="line"/>
    </contour>
  </outline>
</glyph>
<glyph name="zero" format="2">
  <advance width="1330"/>
  <unicode hex="0030"/>
  <outline>
    <contour>
      <point x="154.28000000000003" y="560.0" type="qcurve" smooth="yes"/>
      <point x="154.28000000000003" y="906.0" type="line" smooth="yes"/>
      <point x="154.28000000000003" y="1194.0281481481481"/>
      <point x="414.32" y="1486.0"/>
      <point x="664.28" y="1486.0" type="qcurve" smooth="yes"/>
      <point x="913.32" y="1486.0"/>
      <point x="1175.28" y="1194.0281481481481"/>
      <point x="1175.28" y="906.0" type="qcurve" smooth="yes"/>
      <point x="1175.28" y="560.0" type="line" smooth="yes"/>
      <point x="1175.28" y="268.61185185185184"/>
      <point x="913.32" y="-30.0"/>
      <point x="664.28" y="-30.0" type="qcurve" smooth="yes"/>
      <point x="414.32" y="-30.0"/>
      <point x="154.28000000000003" y="268.61185185185184"/>
    </contour>
    <contour>
      <point x="268.16" y="560.0" type="line" smooth="yes"/>
      <point x="268.16" y="289.53037037037035"/>
      <point x="455.88" y="17.359999999999978"/>
      <point x="664.28" y="17.359999999999978" type="qcurve" smooth="yes"/>
      <point x="871.6800000000001" y="17.359999999999978"/>
      <point x="1062.4" y="289.53037037037035"/>
      <point x="1062.4" y="560.0" type="qcurve" smooth="yes"/>
      <point x="1062.4" y="906.0" type="line" smooth="yes"/>
      <point x="1062.4" y="1152.1496296296295"/>
      <point x="871.6800000000001" y="1438.64"/>
      <point x="664.28" y="1438.64" type="qcurve" smooth="yes"/>
      <point x="455.88" y="1438.64"/>
      <point x="268.16" y="1152.1496296296295"/>
      <point x="268.16" y="906.0" type="qcurve" smooth="yes"/>
    </contour>
  </outline>
</glyph>
<glyph name="eight" format="2">
  <advance width="1330"/>
  <unicode hex="0038"/>
  <outline>
    <contour>
      <point x="140.0" y="379.6296296296296" type="qcurve" smooth="yes"/>
      <point x="140.0" y="514.5852266832659"/>
      <point x="327.462962962963" y="711.532719780379"/>
      <point x="452.462962962963" y="746.3888888888889" type="qcurve"/>
      <point x="452.462962962963" y="750.3888888888889" type="line"/>
      <point x="354.462962962963" y="785.3604258740678"/>
      <point x="193.0" y="974.4749455337691"/>
      <point x="193.0" y="1099.3703703703704" type="qcurve" smooth="yes"/>
      <point x="193.0" y="1273.9476468950154"/>
      <point x="487.462962962963" y="1486.0"/>
      <point x="687.4629629629629" y="1486.0" type="qcurve" smooth="yes"/>
      <point x="887.4629629629629" y="1486.0"/>
      <point x="1180.0" y="1268.8735728209413"/>
      <point x="1180.0" y="1099.3703703703704" type="qcurve" smooth="yes"/>
      <point x="1180.0" y="974.4749455337691"/>
      <point x="1020.0" y="785.3604258740678"/>
      <point x="921.0" y="750.3888888888889" type="qcurve"/>
      <point x="921.0" y="746.3888888888889" type="line"/>
      <point x="1046.0" y="721.532719780379"/>
      <point x="1235.0" y="514.5852266832659"/>
      <point x="1235.0" y="379.6296296296296" type="qcurve" smooth="yes"/>
      <point x="1235.0" y="187.18571937321937"/>
      <point x="910.4629629629629" y="-30.0"/>
      <point x="687.4629629629629" y="-30.0" type="qcurve" smooth="yes"/>
      <point x="464.462962962963" y="-30.0"/>
      <point x="140.0" y="187.18571937321937"/>
    </contour>
    <contour>
      <point x="253.0" y="381.25925925925924" type="qcurve" smooth="yes"/>
      <point x="253.0" y="219.03602509613438"/>
      <point x="501.46296296296293" y="12.999999999999993"/>
      <point x="687.4629629629629" y="12.999999999999993" type="qcurve" smooth="yes"/>
      <point x="874.4629629629629" y="12.999999999999993"/>
      <point x="1122.0" y="218.03602509613438"/>
      <point x="1122.0" y="381.25925925925924" type="qcurve" smooth="yes"/>
      <point x="1122.0" y="534.6759813705921"/>
      <point x="874.4629629629629" y="724.0"/>
      <point x="687.4629629629629" y="724.0" type="qcurve" smooth="yes"/>
      <point x="501.46296296296293" y="724.0"/>
      <point x="253.0" y="535.6759813705921"/>
    </contour>
    <contour>
      <point x="305.0" y="1097.7407407407406" type="qcurve" smooth="yes"/>
      <point x="305.0" y="955.9197920317794"/>
      <point x="525.462962962963" y="766.0"/>
      <point x="687.4629629629629" y="766.0" type="qcurve" smooth="yes"/>
      <point x="850.4629629629629" y="766.0"/>
      <point x="1069.0" y="955.9197920317794"/>
      <point x="1069.0" y="1097.7407407407406" type="qcurve" smooth="yes"/>
      <point x="1069.0" y="1248.4789875835722"/>
      <point x="850.4629629629629" y="1443.0"/>
      <point x="687.4629629629629" y="1443.0" type="qcurve" smooth="yes"/>
      <point x="525.462962962963" y="1443.0"/>
      <point x="305.0" y="1248.4789875835722"/>
    </contour>
  </outline>
</glyph>
<glyph name="less" format="2">
  <advance width="1708"/>
  <unicode hex="003C"/>
  <outline>
    <contour>
      <point x="1345.1466666666665" y="257.3214814814815" type="line"/>
      <point x="350.0037037037037" y="623.9999999999999" type="line"/>
      <point x="350.0037037037037" y="732.0000000000001" type="line"/>
      <point x="1345.1466666666665" y="1100.8266666666668" type="line"/>
      <point x="1345.1466666666665" y="1052.6525925925926" type="line"/>
      <point x="482.36370370370366" y="671.0" type="line"/>
      <point x="1345.1466666666665" y="280.12518518518516" type="line"/>
    </contour>
  </outline>
</glyph>
<glyph name="equal" format="2">
  <advance width="1718"/>
  <unicode hex="003D"/>
  <outline>
    <contour>
      <point x="437.9555555555555" y="474.7237037037037" type="line"/>
      <point x="437.9555555555555" y="514.2962962962963" type="line"/>
      <point x="1279.0118518518518" y="514.2962962962963" type="line"/>
      <point x="1279.0118518518518" y="474.7237037037037" type="line"/>
    </contour>
    <contour>
      <point x="437.9555555555555" y="889.5185185185185" type="line"/>
      <point x="437.9555555555555" y="929.0911111111111" type="line"/>
      <point x="1279.0118518518518" y="929.0911111111111" type="line"/>
      <point x="1279.0118518518518" y="889.5185185185185" type="line"/>
    </contour>
  </outline>
</glyph>
<glyph name="question" format="2">
  <advance width="825"/>
  <unicode hex="003F"/>
  <outline>
    <contour>
      <point x="278.2" y="55.09037037037038" type="qcurve" smooth="yes"/>
      <point x="278.2" y="86.78370370370371"/>
      <point x="321.42" y="132.18074074074076"/>
      <point x="361.88000000000005" y="132.18074074074076" type="qcurve" smooth="yes"/>
      <point x="401.34000000000003" y="132.18074074074076"/>
      <point x="444.56000000000006" y="86.78370370370371"/>
      <point x="444.56000000000006" y="55.09037037037038" type="qcurve" smooth="yes"/>
      <point x="444.56000000000006" y="23.397037037037045"/>
      <point x="401.34000000000003" y="-22.0"/>
      <point x="361.88000000000005" y="-22.0" type="qcurve" smooth="yes"/>
      <point x="321.42" y="-22.0"/>
      <point x="278.2" y="23.397037037037045"/>
    </contour>
    <contour>
      <point x="-18.719999999999985" y="1083.0" type="line"/>
      <point x="-18.719999999999985" y="1105.4" type="line" smooth="yes"/>
      <point x="-18.719999999999985" y="1263.92"/>
      <point x="207.60000000000005" y="1476.0"/>
      <point x="403.72" y="1476.0" type="qcurve" smooth="yes"/>
      <point x="597.76" y="1476.0"/>
      <point x="817.6800000000001" y="1278.2607407407406"/>
      <point x="817.6800000000001" y="1152.851851851852" type="qcurve" smooth="yes"/>
      <point x="817.6800000000001" y="1016.9496296296296"/>
      <point x="705.32" y="871.7274074074073"/>
      <point x="605.96" y="764.3940740740741" type="qcurve" smooth="yes"/>
      <point x="493.46000000000004" y="650.9622222222222"/>
      <point x="415.65999999999997" y="511.0503703703704"/>
      <point x="415.65999999999997" y="426.8" type="qcurve" smooth="yes"/>
      <point x="415.65999999999997" y="416.8" type="line"/>
      <point x="301.68" y="416.8" type="line"/>
      <point x="301.68" y="426.8" type="line" smooth="yes"/>
      <point x="301.68" y="534.5844444444444"/>
      <point x="408.38" y="708.714074074074"/>
      <point x="502.08" y="784.52" type="qcurve" smooth="yes"/>
      <point x="601.82" y="879.4674074074074"/>
      <point x="704.6999999999999" y="1032.231111111111"/>
      <point x="704.6999999999999" y="1152.851851851852" type="qcurve" smooth="yes"/>
      <point x="704.6999999999999" y="1265.9125925925928"/>
      <point x="555.04" y="1434.5481481481484"/>
      <point x="403.72" y="1434.5481481481484" type="qcurve" smooth="yes"/>
      <point x="252.72000000000003" y="1434.5481481481484"/>
      <point x="95.08000000000001" y="1254.022962962963"/>
      <point x="95.08000000000001" y="1105.4" type="qcurve" smooth="yes"/>
      <point x="95.08000000000001" y="1083.0" type="line"/>
    </contour>
  </outline>
</glyph>
<glyph name="C" format="2">
  <advance width="1387"/>
  <unicode hex="0043"/>
  <anchor x="686.0" y="0" name="bottom"/>
  <outline>
    <contour>
      <point x="115.0" y="706.5999999999999" type="qcurve" smooth="yes"/>
      <point x="115.0" y="749.4000000000001" type="line" smooth="yes"/>
      <point x="115.0" y="1096.88"/>
      <point x="484.66" y="1486.0"/>
      <point x="764.74" y="1486.0" type="qcurve" smooth="yes"/>
      <point x="1040.4875812274367" y="1486.0"/>
      <point x="1324.4533333333331" y="1207.117777777778"/>
      <point x="1353.7429629629628" y="1018.8518518518518" type="qcurve" smooth="yes"/>
      <point x="1355.2799999999997" y="1008.8518518518518" type="line"/>
      <point x="1241.22" y="1008.8518518518518" type="line"/>
      <point x="1239.682962962963" y="1018.8518518518518" type="line" smooth="yes"/>
      <point x="1216.8581133136186" y="1175.4401521475702"/>
      <point x="1000.7691390728477" y="1441.822222222222"/>
      <point x="764.74" y="1441.822222222222" type="qcurve" smooth="yes"/>
      <point x="529.4628070175438" y="1441.822222222222"/>
      <point x="229.42000000000002" y="1074.0972262773723"/>
      <point x="229.42000000000002" y="749.4000000000001" type="qcurve" smooth="yes"/>
      <point x="229.42000000000002" y="706.5999999999999" type="line" smooth="yes"/>
      <point x="229.42000000000002" y="381.898102189781"/>
      <point x="529.4628070175438" y="14.177777777777777"/>
      <point x="764.74" y="14.177777777777777" type="qcurve" smooth="yes"/>
      <point x="1000.7691390728477" y="14.177777777777777"/>
      <point x="1227.5988540543592" y="270.89318118576307"/>
      <point x="1240.22" y="437.14814814814815" type="qcurve" smooth="yes"/>
      <point x="1241.22" y="447.14814814814815" type="line"/>
      <point x="1355.2799999999997" y="447.14814814814815" type="line"/>
      <point x="1354.2799999999997" y="437.14814814814815" type="line" smooth="yes"/>
      <point x="1334.12" y="233.30814814814815"/>
      <point x="1040.4875812274367" y="-30.0"/>
      <point x="764.74" y="-30.0" type="qcurve" smooth="yes"/>
      <point x="484.66" y="-30.0"/>
      <point x="115.0" y="359.06966292134837"/>
    </contour>
  </outline>
</glyph>
<glyph name="H" format="2">
  <advance width="1528"/>
  <unicode hex="0048"/>
  <outline>
    <contour>
      <point x="170.0" y="0.0" type="line"/>
      <point x="170.0" y="1456.0" type="line"/>
      <point x="282.52" y="1456.0" type="line"/>
      <point x="282.52" y="772.88" type="line"/>
      <point x="1246.1200000000001" y="772.88" type="line"/>
      <point x="1246.1200000000001" y="1456.0" type="line"/>
      <point x="1357.6399999999999" y="1456.0" type="line"/>
      <point x="1357.6399999999999" y="0.0" type="line"/>
      <point x="1246.1200000000001" y="0.0" type="line"/>
      <point x="1246.1200000000001" y="728.88" type="line"/>
      <point x="282.52" y="728.88" type="line"/>
      <point x="282.52" y="0.0" type="line"/>
    </contour>
  </outline>
</glyph>
<glyph name="J" format="2">
  <advance width="1129"/>
  <unicode hex="004A"/>
  <outline>
    <contour>
      <point x="25.0" y="410.8666666666667" type="qcurve" smooth="yes"/>
      <point x="25.0" y="420.8666666666667" type="line"/>
      <point x="137.26000000000002" y="420.8666666666667" type="line"/>
      <point x="137.26000000000002" y="410.8666666666667" type="line" smooth="yes"/>
      <point x="137.26000000000002" y="219.88444444444445"/>
      <point x="331.72728358208957" y="13.577777777777783"/>
      <point x="500.05999999999995" y="13.577777777777783" type="qcurve" smooth="yes"/>
      <point x="668.3927164179104" y="13.577777777777783"/>
      <point x="862.86" y="257.5653684612447"/>
      <point x="862.86" y="484.2" type="qcurve" smooth="yes"/>
      <point x="862.86" y="1456.0" type="line"/>
      <point x="974.3799999999999" y="1456.0" type="line"/>
      <point x="974.3799999999999" y="484.737037037037" type="line" smooth="yes"/>
      <point x="974.3799999999999" y="246.01538461538462"/>
      <point x="710.8399999999999" y="-30.0"/>
      <point x="500.05999999999995" y="-30.0" type="qcurve" smooth="yes"/>
      <point x="289.28" y="-30.0"/>
      <point x="25.0" y="231.72"/>
    </contour>
  </outline>
</glyph>
<glyph name="N" format="2">
  <advance width="1394"/>
  <unicode hex="004E"/>
  <anchor x="645.5555555555555" y="1432.0" name="top"/>
  <outline>
    <contour>
      <point x="170.0" y="0.0" type="line"/>
      <point x="170.0" y="1456.0" type="line"/>
      <point x="259.5955555555555" y="1456.0" type="line"/>
      <point x="1115.5555555555557" y="232.0" type="line" smooth="yes"/>
      <point x="1149.5555555555557" y="183.0"/>
      <point x="1172.1666666666667" y="123.0"/>
      <point x="1187.2407407407406" y="99.0" type="qcurve"/>
      <point x="1197.2407407407406" y="99.0" type="line"/>
      <point x="1192.1666666666667" y="129.0"/>
      <point x="1182.5555555555557" y="213.0"/>
      <point x="1182.5555555555557" y="243.0" type="qcurve" smooth="yes"/>
      <point x="1182.5555555555557" y="1456.0" type="line"/>
      <point x="1224.591111111111" y="1456.0" type="line"/>
      <point x="1224.591111111111" y="0.0" type="line"/>
      <point x="1144.7955555555554" y="0.0" type="line"/>
      <point x="263.55555555555554" y="1258.0" type="line" smooth="yes"/>
      <point x="242.55555555555554" y="1289.0"/>
      <point x="221.94444444444446" y="1333.0"/>
      <point x="209.94444444444446" y="1357.0" type="qcurve"/>
      <point x="200.94444444444446" y="1357.0" type="line"/>
      <point x="204.94444444444446" y="1325.0"/>
      <point x="209.55555555555554" y="1266.0"/>
      <point x="209.55555555555554" y="1236.0" type="qcurve" smooth="yes"/>
      <point x="209.55555555555554" y="0.0" type="line"/>
    </contour>
  </outline>
</glyph>
<glyph name="O" format="2">
  <advance width="1554"/>
  <unicode hex="004F"/>
  <anchor x="689.0" y="1432.0" name="top"/>
  <outline>
    <contour>
      <point x="115.0" y="706.5999999999999" type="qcurve" smooth="yes"/>
      <point x="115.0" y="749.4000000000001" type="line" smooth="yes"/>
      <point x="115.0" y="1096.88"/>
      <point x="484.50000000000006" y="1486.0"/>
      <point x="776.6999999999999" y="1486.0" type="qcurve" smooth="yes"/>
      <point x="1067.570243902439" y="1486.0"/>
      <point x="1438.3999999999999" y="1096.88"/>
      <point x="1438.3999999999999" y="749.4000000000001" type="qcurve" smooth="yes"/>
      <point x="1438.3999999999999" y="706.5999999999999" type="line" smooth="yes"/>
      <point x="1438.3999999999999" y="359.06966292134837"/>
      <point x="1067.570243902439" y="-30.0"/>
      <point x="776.6999999999999" y="-30.0" type="qcurve" smooth="yes"/>
      <point x="485.50000000000006" y="-30.0"/>
      <point x="115.0" y="359.06966292134837"/>
    </contour>
    <contour>
      <point x="229.42000000000002" y="706.5999999999999" type="line" smooth="yes"/>
      <point x="229.42000000000002" y="374.5958799675588"/>
      <point x="530.725247148289" y="14.177777777777777"/>
      <point x="776.6999999999999" y="14.177777777777777" type="qcurve" smooth="yes"/>
      <point x="1022.3249429657797" y="14.177777777777777"/>
      <point x="1323.98" y="374.5958799675588"/>
      <point x="1323.98" y="706.5999999999999" type="qcurve" smooth="yes"/>
      <point x="1323.98" y="749.4000000000001" type="line" smooth="yes"/>
      <point x="1323.98" y="1081.3994484995944"/>
      <point x="1022.3249429657797" y="1441.822222222222"/>
      <point x="776.6999999999999" y="1441.822222222222" type="qcurve" smooth="yes"/>
      <point x="530.725247148289" y="1441.822222222222"/>
      <point x="229.42000000000002" y="1081.3994484995944"/>
      <point x="229.42000000000002" y="749.4000000000001" type="qcurve" smooth="yes"/>
    </contour>
  </outline>
</glyph>
<glyph name="R" format="2">
  <advance width="1288"/>
  <unicode hex="0052"/>
  <outline>
    <contour>
      <point x="170.0" y="0.0" type="line"/>
      <point x="170.0" y="1456.0" type="line"/>
      <point x="661.92" y="1456.0" type="line" smooth="yes"/>
      <point x="913.24" y="1456.0"/>
      <point x="1171.06" y="1230.3874074074074"/>
      <point x="1171.06" y="1049.4259259259259" type="qcurve" smooth="yes"/>
      <point x="1171.06" y="867.4644444444444"/>
      <point x="913.24" y="644.1540740740741"/>
      <point x="661.92" y="644.1540740740741" type="qcurve" smooth="yes"/>
      <point x="282.88" y="644.1540740740741" type="line"/>
      <point x="282.88" y="0.0" type="line"/>
    </contour>
    <contour>
      <point x="282.88" y="690.1481481481482" type="line"/>
      <point x="661.92" y="690.1481481481482" type="line" smooth="yes"/>
      <point x="883.7766486486487" y="690.1481481481482"/>
      <point x="1057.4399999999998" y="894.8296296296297"/>
      <point x="1057.4399999999998" y="1049.4259259259259" type="qcurve" smooth="yes"/>
      <point x="1057.4399999999998" y="1203.0222222222221"/>
      <point x="883.7766486486487" y="1410.0059259259258"/>
      <point x="661.92" y="1410.0059259259258" type="qcurve" smooth="yes"/>
      <point x="282.88" y="1410.0059259259258" type="line"/>
    </contour>
    <contour>
      <point x="1116.92" y="0.0" type="line"/>
      <point x="685.6177777777777" y="678.9814814814815" type="line"/>
      <point x="805.4807407407408" y="678.9814814814815" type="line"/>
      <point x="1245.0" y="0.0" type="line"/>
    </contour>
  </outline>
</glyph>
<glyph name="T" format="2">
  <advance width="1267"/>
  <unicode hex="0054"/>
  <outline>
    <contour>
      <point x="24.0" y="1411.0" type="line"/>
      <point x="24.0" y="1456.0" type="line"/>
      <point x="1242.76" y="1456.0" type="line"/>
      <point x="1242.76" y="1411.0" type="line"/>
      <point x="689.64" y="1411.0" type="line"/>
      <point x="689.64" y="0.0" type="line"/>
      <point x="578.1199999999999" y="0.0" type="line"/>
      <point x="578.1199999999999" y="1411.0" type="line"/>
    </contour>
  </outline>
</glyph>
<glyph name="Y" format="2">
  <advance width="1336"/>
  <unicode hex="0059"/>
  <anchor x="614.0" y="1432.0" name="top"/>
  <outline>
    <contour>
      <point x="611.8399999999999" y="0.0" type="line"/>
      <point x="611.8399999999999" y="569.7888888888889" type="line"/>
      <point x="15.0" y="1456.0" type="line"/>
      <point x="152.56" y="1456.0" type="line"/>
      <point x="633.9533333333334" y="717.6777777777778" type="line" smooth="yes"/>
      <point x="654.7533333333333" y="687.1407407407407"/>
      <point x="683.9088888888889" y="633.5851851851852"/>
      <point x="697.7088888888889" y="603.5851851851852" type="qcurve"/>
      <point x="702.5488888888889" y="603.5851851851852" type="line"/>
      <point x="718.348888888889" y="633.5851851851852"/>
      <point x="758.3192592592592" y="699.4185185185185"/>
      <point x="778.1192592592593" y="727.8814814814815" type="qcurve" smooth="yes"/>
      <point x="1264.7851851851851" y="1456.0" type="line"/>
      <point x="1321.2" y="1456.0" type="line"/>
      <point x="723.36" y="571.937037037037" type="line"/>
      <point x="723.36" y="0.0" type="line"/>
    </contour>
  </outline>
</glyph>
<glyph name="a" format="2">
  <advance width="1228"/>
  <unicode hex="0061"/>
  <anchor x="532.0" y="1089.0" name="top"/>
  <outline>
    <contour>
      <point x="90.0" y="283.08888888888896" type="qcurve" smooth="yes"/>
      <point x="90.0" y="431.93865996649913"/>
      <point x="374.58" y="611.9481481481481"/>
      <point x="596.48" y="611.9481481481481" type="qcurve" smooth="yes"/>
      <point x="959.44" y="611.9481481481481" type="line"/>
      <point x="959.44" y="757.12" type="line" smooth="yes"/>
      <point x="959.44" y="899.9666666666667"/>
      <point x="808.246734006734" y="1075.3496296296296"/>
      <point x="622.72" y="1075.3496296296296" type="qcurve" smooth="yes"/>
      <point x="437.42627062706265" y="1075.3496296296296"/>
      <point x="278.68000000000006" y="904.151111111111"/>
      <point x="278.68000000000006" y="790.92" type="qcurve" smooth="yes"/>
      <point x="278.68000000000006" y="785.92" type="line"/>
      <point x="172.18" y="785.92" type="line"/>
      <point x="172.18" y="790.92" type="line" smooth="yes"/>
      <point x="172.18" y="928.0867236467236"/>
      <point x="413.14" y="1119.12"/>
      <point x="629.3599999999999" y="1119.12" type="qcurve" smooth="yes"/>
      <point x="838.3399999999999" y="1119.12"/>
      <point x="1070.04" y="937.0"/>
      <point x="1070.04" y="757.0" type="qcurve" smooth="yes"/>
      <point x="1070.04" y="240.0" type="line" smooth="yes"/>
      <point x="1070.04" y="175.0"/>
      <point x="1095.16" y="60.0"/>
      <point x="1118.12" y="16.0" type="qcurve"/>
      <point x="1118.12" y="0.0" type="line"/>
      <point x="1016.56" y="0.0" type="line"/>
      <point x="995.9425855649447" y="31.937710962069545"/>
      <point x="967.4717177985904" y="136.41857750027646"/>
      <point x="963.28" y="187.91111111111113" type="qcurve"/>
      <point x="913.4392368673997" y="117.41410670595312"/>
      <point x="671.8063473405817" y="-20.0"/>
      <point x="493.63999999999993" y="-20.0" type="qcurve" smooth="yes"/>
      <point x="317.4384435797665" y="-20.0"/>
      <point x="90.0" y="130.6047138047138"/>
    </contour>
    <contour>
      <point x="199.64" y="280.91851851851857" type="qcurve" smooth="yes"/>
      <point x="199.64" y="157.0824074074074"/>
      <point x="360.09088351478954" y="23.770370370370387"/>
      <point x="529.12" y="23.770370370370387" type="qcurve" smooth="yes"/>
      <point x="694.7351927437642" y="23.770370370370387"/>
      <point x="959.44" y="221.85841912798872"/>
      <point x="959.44" y="337.80370370370366" type="qcurve"/>
      <point x="959.44" y="565.1851851851852" type="line"/>
      <point x="622.72" y="565.1851851851852" type="line" smooth="yes"/>
      <point x="414.1666321243523" y="565.1851851851852"/>
      <point x="199.64" y="407.7687112622827"/>
    </contour>
  </outline>
</glyph>
<glyph name="b" format="2">
  <advance width="1293"/>
  <unicode hex="0062"/>
  <outline>
    <contour>
      <point x="148.0" y="0.0" type="line"/>
      <point x="148.0" y="1536.0" type="line"/>
      <point x="257.64" y="1536.0" type="line"/>
      <point x="257.64" y="940.5200000000001" type="line"/>
      <point x="327.44724944748856" y="1013.46221212187"/>
      <point x="546.4971631205674" y="1109.12"/>
      <point x="698.92" y="1109.12" type="qcurve" smooth="yes"/>
      <point x="935.7599999999999" y="1109.12"/>
      <point x="1206.6399999999999" y="798.5154179566564"/>
      <point x="1206.6399999999999" y="560.56" type="qcurve" smooth="yes"/>
      <point x="1206.6399999999999" y="528.56" type="line" smooth="yes"/>
      <point x="1206.6399999999999" y="290.5056603773585"/>
      <point x="935.7599999999999" y="-20.0"/>
      <point x="698.92" y="-20.0" type="qcurve" smooth="yes"/>
      <point x="546.5859813084112" y="-20.0"/>
      <point x="312.57193358421836" y="88.95401515491777"/>
      <point x="252.32000000000005" y="161.60000000000002" type="qcurve"/>
      <point x="253.88000000000005" y="161.60000000000002" type="line"/>
      <point x="249.84000000000003" y="0.0" type="line"/>
    </contour>
    <contour>
      <point x="257.64" y="234.05629629629635" type="line"/>
      <point x="304.5672860725414" y="152.58700540998512"/>
      <point x="514.0179945799457" y="28.02222222222224"/>
      <point x="663.44" y="28.02222222222224" type="qcurve" smooth="yes"/>
      <point x="887.9865989847715" y="28.02222222222224"/>
      <point x="1094.48" y="316.37132275132274"/>
      <point x="1094.48" y="528.56" type="qcurve" smooth="yes"/>
      <point x="1094.48" y="560.56" type="line" smooth="yes"/>
      <point x="1094.48" y="772.7202849002849"/>
      <point x="887.9865989847715" y="1061.0977777777778"/>
      <point x="663.44" y="1061.0977777777778" type="qcurve" smooth="yes"/>
      <point x="514.0179945799457" y="1061.0977777777778"/>
      <point x="304.5382385538046" y="936.4841419448666"/>
      <point x="257.64" y="855.0637037037037" type="qcurve"/>
    </contour>
  </outline>
</glyph>
<glyph name="f" format="2">
  <advance width="696"/>
  <unicode hex="0066"/>
  <outline>
    <contour>
      <point x="273.8" y="0.0" type="line"/>
      <point x="273.8" y="1151.4" type="line" smooth="yes"/>
      <point x="273.8" y="1348.3919101123595"/>
      <point x="473.1120997920998" y="1556.0"/>
      <point x="644.44" y="1556.0" type="qcurve" smooth="yes"/>
      <point x="681.52" y="1556.0"/>
      <point x="759.84" y="1545.9259259259259"/>
      <point x="794.08" y="1540.0" type="qcurve"/>
      <point x="781.72" y="1501.868888888889" type="line"/>
      <point x="755.84" y="1507.4059259259259"/>
      <point x="688.72" y="1517.5540740740742"/>
      <point x="654.32" y="1517.5540740740742" type="qcurve" smooth="yes"/>
      <point x="525.0426666666667" y="1517.5540740740742"/>
      <point x="383.48" y="1334.977037037037"/>
      <point x="383.48" y="1151.4" type="qcurve" smooth="yes"/>
      <point x="383.48" y="1068.4414814814816" type="line"/>
      <point x="383.48" y="1060.8859259259261" type="line"/>
      <point x="383.48" y="0.0" type="line"/>
    </contour>
    <contour>
      <point x="25.0" y="1039.4474074074074" type="line"/>
      <point x="25.0" y="1088.88" type="line"/>
      <point x="308.56" y="1088.88" type="line"/>
      <point x="345.36" y="1088.88" type="line"/>
      <point x="705.92" y="1088.88" type="line"/>
      <point x="705.92" y="1039.4474074074074" type="line"/>
    </contour>
  </outline>
</glyph>
<glyph name="o" format="2">
  <advance width="1299"/>
  <unicode hex="006F"/>
  <anchor x="553.0" y="1089.0" name="top"/>
  <outline>
    <contour>
      <point x="85.0" y="528.56" type="qcurve" smooth="yes"/>
      <point x="85.0" y="560.56" type="line" smooth="yes"/>
      <point x="85.0" y="806.7034146341464"/>
      <point x="392.56" y="1119.12"/>
      <point x="649.44" y="1119.12" type="qcurve" smooth="yes"/>
      <point x="906.3199999999999" y="1119.12"/>
      <point x="1213.88" y="806.7034146341464"/>
      <point x="1213.88" y="560.56" type="qcurve" smooth="yes"/>
      <point x="1213.88" y="528.56" type="line" smooth="yes"/>
      <point x="1213.88" y="282.37985185185187"/>
      <point x="906.3199999999999" y="-30.0"/>
      <point x="649.44" y="-30.0" type="qcurve" smooth="yes"/>
      <point x="392.56" y="-30.0"/>
      <point x="85.0" y="282.37985185185187"/>
    </contour>
    <contour>
      <point x="196.16000000000003" y="560.56" type="qcurve" smooth="yes"/>
      <point x="196.16000000000003" y="528.56" type="line" smooth="yes"/>
      <point x="196.16000000000003" y="314.43029400534556"/>
      <point x="426.76" y="18.02222222222224"/>
      <point x="649.44" y="18.02222222222224" type="qcurve" smooth="yes"/>
      <point x="872.12" y="18.02222222222224"/>
      <point x="1102.7199999999998" y="314.43029400534556"/>
      <point x="1102.7199999999998" y="528.56" type="qcurve" smooth="yes"/>
      <point x="1102.7199999999998" y="560.56" type="line" smooth="yes"/>
      <point x="1102.7199999999998" y="774.7656084656085"/>
      <point x="872.12" y="1071.0977777777778"/>
      <point x="649.44" y="1071.0977777777778" type="qcurve" smooth="yes"/>
      <point x="426.76" y="1071.0977777777778"/>
      <point x="196.16000000000003" y="774.7656084656085"/>
    </contour>
  </outline>
</glyph>
<glyph name="u" format="2">
  <advance width="1238"/>
  <unicode hex="0075"/>
  <anchor x="530.0" y="1089.0" name="top"/>
  <outline>
    <contour>
      <point x="138.0" y="351.9762962962963" type="qcurve" smooth="yes"/>
      <point x="138.0" y="1089.12" type="line"/>
      <point x="247.64" y="1089.12" type="line"/>
      <point x="247.64" y="349.9762962962963" type="line" smooth="yes"/>
      <point x="247.64" y="176.04518518518518"/>
      <point x="422.96000000000004" y="25.674074074074078"/>
      <point x="583.04" y="25.674074074074078" type="qcurve" smooth="yes"/>
      <point x="717.6399999999999" y="25.674074074074078"/>
      <point x="915.22" y="154.74222222222218"/>
      <point x="978.88" y="254.17629629629633" type="qcurve"/>
      <point x="978.88" y="1089.12" type="line"/>
      <point x="1089.52" y="1089.12" type="line"/>
      <point x="1089.52" y="0.0" type="line"/>
      <point x="987.68" y="0.0" type="line"/>
      <point x="982.6399999999999" y="184.2" type="line"/>
      <point x="984.1999999999999" y="184.2" type="line"/>
      <point x="902.14" y="81.25111111111111"/>
      <point x="681.86" y="-20.0"/>
      <point x="541.06" y="-20.0" type="qcurve" smooth="yes"/>
      <point x="355.2" y="-20.0"/>
      <point x="138.0" y="150.97629629629628"/>
    </contour>
  </outline>
</glyph>
<glyph name="braceleft" format="2">
  <advance width="622"/>
  <unicode hex="007B"/>
  <outline>
    <contour>
      <point x="670.9200000000001" y="-312.0" type="line"/>
      <point x="411.52" y="-312.0"/>
      <point x="156.88000000000002" y="-57.78074074074075"/>
      <point x="218.48" y="155.8" type="qcurve" smooth="yes"/>
      <point x="271.6" y="327.2" type="line" smooth="yes"/>
      <point x="305.96" y="462.0718518518518"/>
      <point x="152.72" y="549.8814814814816"/>
      <point x="21.040000000000006" y="549.8814814814816" type="qcurve"/>
      <point x="21.040000000000006" y="598.1185185185184" type="line"/>
      <point x="152.72" y="598.1185185185184"/>
      <point x="305.96" y="685.9281481481481"/>
      <point x="271.6" y="820.8" type="qcurve" smooth="yes"/>
      <point x="218.48" y="992.2" type="line" smooth="yes"/>
      <point x="156.88000000000002" y="1205.7807407407406"/>
      <point x="411.52" y="1460.0"/>
      <point x="670.9200000000001" y="1460.0" type="qcurve"/>
      <point x="670.9200000000001" y="1415.5555555555557" type="line"/>
      <point x="446.0" y="1415.5555555555557"/>
      <point x="277.54" y="1176.6874074074074"/>
      <point x="329.44000000000005" y="985.4" type="qcurve" smooth="yes"/>
      <point x="383.56" y="814.0" type="line" smooth="yes"/>
      <point x="408.8" y="731.5200000000001"/>
      <point x="335.48" y="591.8"/>
      <point x="240.44" y="574.0" type="qcurve"/>
      <point x="335.48" y="556.2"/>
      <point x="407.16" y="417.79999999999995"/>
      <point x="383.56" y="334.0" type="qcurve" smooth="yes"/>
      <point x="329.44000000000005" y="162.6" type="line" smooth="yes"/>
      <point x="277.54" y="-28.687407407407406"/>
      <point x="446.0" y="-267.55555555555554"/>
      <point x="670.9200000000001" y="-267.55555555555554" type="qcurve"/>
    </contour>
  </outline>
</glyph>
<glyph name="braceright" format="2">
  <advance width="622"/>
  <unicode hex="007D"/>
  <outline>
    <contour>
      <point x="-50.359999999999985" y="-312.0" type="qcurve"/>
      <point x="-50.359999999999985" y="-267.55555555555554" type="line"/>
      <point x="174.56" y="-267.55555555555554"/>
      <point x="344.02000000000004" y="-28.687407407407406"/>
      <point x="291.12" y="162.6" type="qcurve" smooth="yes"/>
      <point x="238.0" y="334.0" type="line" smooth="yes"/>
      <point x="214.39999999999998" y="417.79999999999995"/>
      <point x="285.08000000000004" y="556.2"/>
      <point x="381.12" y="574.0" type="qcurve"/>
      <point x="285.08000000000004" y="591.8"/>
      <point x="214.39999999999998" y="730.1999999999999"/>
      <point x="238.0" y="814.0" type="qcurve" smooth="yes"/>
      <point x="291.12" y="985.4" type="line" smooth="yes"/>
      <point x="344.02000000000004" y="1176.6874074074074"/>
      <point x="174.56" y="1415.5555555555557"/>
      <point x="-50.359999999999985" y="1415.5555555555557" type="qcurve"/>
      <point x="-50.359999999999985" y="1460.0" type="line"/>
      <point x="209.04000000000002" y="1460.0"/>
      <point x="464.67999999999995" y="1205.7807407407406"/>
      <point x="403.08" y="992.2" type="qcurve" smooth="yes"/>
      <point x="348.96000000000004" y="820.8" type="line" smooth="yes"/>
      <point x="314.59999999999997" y="685.9281481481481"/>
      <point x="467.84" y="598.1185185185184"/>
      <point x="600.52" y="598.1185185185184" type="qcurve"/>
      <point x="600.52" y="549.8814814814816" type="line"/>
      <point x="467.84" y="549.8814814814816"/>
      <point x="314.59999999999997" y="462.0718518518518"/>
      <point x="348.96000000000004" y="327.2" type="qcurve" smooth="yes"/>
      <point x="403.08" y="155.8" type="line" smooth="yes"/>
      <point x="464.67999999999995" y="-57.78074074074075"/>
      <point x="209.04000000000002" y="-312.0"/>
    </contour>
  </outline>
</glyph>
<glyph name="asciitilde" format="2">
  <advance width="1710"/>
  <unicode hex="007E"/>
  <outline>
    <contour>
      <point x="329.0" y="605.8518518518518" type="qcurve"/>
      <point x="329.0" y="671.7592592592592" type="line"/>
      <point x="382.0" y="727.574074074074"/>
      <point x="531.0" y="788.4629629629629"/>
      <point x="605.0" y="790.0" type="qcurve" smooth="yes"/>
      <point x="599.0" y="791.0"/>
      <point x="792.0" y="746.0"/>
      <point x="860.0" y="730.0" type="qcurve" smooth="yes"/>
      <point x="927.0" y="717.0"/>
      <point x="1117.0" y="670.0"/>
      <point x="1114.0" y="670.0" type="qcurve" smooth="yes"/>
      <point x="1187.0" y="670.0"/>
      <point x="1329.0" y="718.8703703703703"/>
      <point x="1382.0" y="761.8148148148148" type="qcurve"/>
      <point x="1382.0" y="686.925925925926" type="line"/>
      <point x="1329.0" y="630.0370370370371"/>
      <point x="1189.0" y="566.0"/>
      <point x="1115.0" y="566.0" type="qcurve" smooth="yes"/>
      <point x="1121.0" y="566.0"/>
      <point x="945.0" y="605.0"/>
      <point x="883.0" y="616.0" type="qcurve" smooth="yes"/>
      <point x="810.0" y="634.0"/>
      <point x="603.0" y="687.0"/>
      <point x="605.0" y="687.0" type="qcurve" smooth="yes"/>
      <point x="531.0" y="687.0"/>
      <point x="382.0" y="644.5"/>
    </contour>
  </outline>
</glyph>
